<?xml version="1.0" encoding="iso-8859-1"?>
<!-- Uploaded to: SVG Repo, www.svgrepo.com, Generator: SVG Repo Mixer Tools -->
<svg fill="#000000" height="25px" width="25px" version="1.1" id="Layer_1" xmlns="http://www.w3.org/2000/svg" xmlns:xlink="http://www.w3.org/1999/xlink" 
	 viewBox="0 0 512.016 512.016" xml:space="preserve">
<g transform="translate(-1)">
	<g>
		<g>
			<path d="M214.345,277.335h-192c-5.909,0-11.563,2.453-15.573,6.763c-4.053,4.331-6.123,10.133-5.717,16.021
				c7.723,113.067,98.795,204.117,211.84,211.84c0.491,0.021,0.981,0.043,1.451,0.043c5.397,0,10.603-2.048,14.571-5.739
				c4.309-4.032,6.763-9.685,6.763-15.595v-192C235.678,286.893,226.142,277.335,214.345,277.335z"/>
			<path d="M22.336,234.679h192c11.797,0,21.333-9.557,21.333-21.333v-192c0-5.909-2.453-11.563-6.763-15.595
				c-4.288-4.032-9.771-5.973-16.021-5.696C99.84,7.757,8.79,98.829,1.046,211.895c-0.384,5.888,1.664,11.691,5.717,16
				C10.774,232.226,16.427,234.679,22.336,234.679z"/>
			<path d="M303.074,0.273c-6.123-0.96-12.459,0.768-17.237,4.821c-4.736,4.053-7.488,9.984-7.488,16.235v469.333
				c0,6.251,2.752,12.203,7.488,16.256c3.904,3.307,8.789,5.077,13.845,5.077c1.131,0,2.261-0.085,3.392-0.256
				c121.643-19.691,209.941-127.232,209.941-255.744S424.717,19.942,303.074,0.273z"/>
		</g>
	</g>
</g>
</svg>